# Cube with protrusions that make it asymmetric

# 72 vertex positions
v -0.5 0 0.5
v 0.5 0 0.5
v 0.5 1 0.5
v -0.5 1 0.5
v -0.5 0 -0.5
v -0.5 1 -0.5
v 0.5 1 -0.5
v 0.5 0 -0.5
v -0.5 1 -0.5
v -0.5 1 0.5
v 0.5 1 0.5
v 0.5 1 -0.5
v -0.5 0 -0.5
v 0.5 0 -0.5
v 0.5 0 0.5
v -0.5 0 0.5
v -0.5 0 -0.5
v -0.5 0 0.5
v -0.5 1 0.5
v -0.5 1 -0.5
v 0.5 0 -0.5
v 0.5 1 -0.5
v 0.5 1 0.5
v 0.5 0 0.5
v 0.28740242 0.164875755 -0.00866096497
v 0.58740242 0.164875755 -0.00866096497
v 0.58740242 0.564875755 -0.00866096497
v 0.28740242 0.564875755 -0.00866096497
v 0.28740242 0.164875755 -0.408660965
v 0.28740242 0.564875755 -0.408660965
v 0.58740242 0.564875755 -0.408660965
v 0.58740242 0.164875755 -0.408660965
v 0.28740242 0.564875755 -0.408660965
v 0.28740242 0.564875755 -0.00866096497
v 0.58740242 0.564875755 -0.00866096497
v 0.58740242 0.564875755 -0.408660965
v 0.28740242 0.164875755 -0.408660965
v 0.58740242 0.164875755 -0.408660965
v 0.58740242 0.164875755 -0.00866096497
v 0.28740242 0.164875755 -0.00866096497
v 0.28740242 0.164875755 -0.408660965
v 0.28740242 0.164875755 -0.00866096497
v 0.28740242 0.564875755 -0.00866096497
v 0.28740242 0.564875755 -0.408660965
v 0.58740242 0.164875755 -0.408660965
v 0.58740242 0.564875755 -0.408660965
v 0.58740242 0.564875755 -0.00866096497
v 0.58740242 0.164875755 -0.00866096497
v 0.0721451092 0.80319664 -0.196660614
v 0.37214512 0.80319664 -0.196660614
v 0.37214512 0.90319664 -0.196660614
v 0.0721451092 0.90319664 -0.196660614
v 0.0721451092 0.80319664 -0.596660614
v 0.0721451092 0.90319664 -0.596660614
v 0.37214512 0.90319664 -0.596660614
v 0.37214512 0.80319664 -0.596660614
v 0.0721451092 0.90319664 -0.596660614
v 0.0721451092 0.90319664 -0.196660614
v 0.37214512 0.90319664 -0.196660614
v 0.37214512 0.90319664 -0.596660614
v 0.0721451092 0.80319664 -0.596660614
v 0.37214512 0.80319664 -0.596660614
v 0.37214512 0.80319664 -0.196660614
v 0.0721451092 0.80319664 -0.196660614
v 0.0721451092 0.80319664 -0.596660614
v 0.0721451092 0.80319664 -0.196660614
v 0.0721451092 0.90319664 -0.196660614
v 0.0721451092 0.90319664 -0.596660614
v 0.37214512 0.80319664 -0.596660614
v 0.37214512 0.90319664 -0.596660614
v 0.37214512 0.90319664 -0.196660614
v 0.37214512 0.80319664 -0.196660614

# 4 UV coordinates
vt 0 0 1
vt 1 0 1
vt 1 1 1
vt 0 1 1

# 14 vertex normals
vn 0 0 1
vn 0 0 -1
vn 0 1 0
vn 0 -1 0
vn -1 0 0
vn 1 0 0
vn 0 0 1
vn 0 0 -1
vn 0 1 0
vn 0 -1 0
vn -1 0 0
vn 1 0 0
vn 0 1 0
vn 0 -1 0

# Combined mesh with 18 faces
g CombinedCube
f  1/1/1 2/2/1 3/3/1 4/4/1
f  5/2/2 6/3/2 7/4/2 8/1/2
f  9/4/3 10/1/3 11/2/3 12/3/3
f  13/1/4 14/2/4 15/3/4 16/4/4
f  17/1/5 18/2/5 19/3/5 20/4/5
f  21/2/6 22/3/6 23/4/6 24/1/6
f  25/1/7 26/2/7 27/3/7 28/4/7
f  29/2/8 30/3/8 31/4/8 32/1/8
f  33/4/9 34/1/9 35/2/9 36/3/9
f  37/1/10 38/2/10 39/3/10 40/4/10
f  41/1/11 42/2/11 43/3/11 44/4/11
f  45/2/12 46/3/12 47/4/12 48/1/12
f  49/1/7 50/2/7 51/3/7 52/4/7
f  53/2/8 54/3/8 55/4/8 56/1/8
f  57/4/13 58/1/13 59/2/13 60/3/13
f  61/1/14 62/2/14 63/3/14 64/4/14
f  65/1/11 66/2/11 67/3/11 68/4/11
f  69/2/12 70/3/12 71/4/12 72/1/12
